# xmcd
#
# Track frame offsets: 
#        150
#        52769
#        97954
#        129329
#        165584
#        204601
#        261040
#
# Disc length: 4181 seconds
#
# Revision: 2
# Processed by: cddbd v1.5.2PL0 Copyright (c) Steve Scherf et al.
# Submitted via: ExactAudioCopy v0.95b4
#
DISCID=51105307
DTITLE=Jaco Pastorius - Donna Lee Live at Budokan '82
DYEAR=1982
DGENRE=Jazz
TTITLE0=Donna Lee
TTITLE1=Liberty City
TTITLE2=Invitation
TTITLE3=Soul Intro - The Chicken
TTITLE4=Sophisticated Lady
TTITLE5=Elegant People
TTITLE6=Reza - Giant Steps - Reza
EXTD=YEAR: 1982
EXTT0=
EXTT1=
EXTT2=
EXTT3=
EXTT4=
EXTT5=
EXTT6=
PLAYORDER=
